<?xml version="1.0" encoding="utf-8"?>
<!-- Generator: Adobe Illustrator 23.0.1, SVG Export Plug-In . SVG Version: 6.00 Build 0)  -->
<svg version="1.1" id="Ebene_1" xmlns="http://www.w3.org/2000/svg" xmlns:xlink="http://www.w3.org/1999/xlink" x="0px" y="0px"
	 width="65.2px" height="65.2px" viewBox="0 0 65.2 65.2" enable-background="new 0 0 65.2 65.2" xml:space="preserve">
<path id="email" fill-rule="evenodd" clip-rule="evenodd" fill="#FFFFFF" d="M27.8,4c-0.2,0-0.3,0.1-0.4,0.2L7.8,24.7
	c-0.3,0.3-0.3,0.7,0,1l28.2,27l-8.5,0.1c-0.2,0-0.3,0.1-0.4,0.2c-0.2,0.2-0.2,0.4-0.1,0.6c0.1,0.2,0.3,0.3,0.5,0.3l19.4-0.1
	c0.2,0,0.3-0.1,0.4-0.2c0.1-0.1,0.2-0.3,0.2-0.4c0-0.2-0.1-0.3-0.2-0.4c-0.1-0.1-0.3-0.2-0.4-0.2l-8.4,0.1l18.9-19.8
	c0.1-0.1,0.2-0.3,0.2-0.5s-0.1-0.4-0.2-0.5l-29-27.7c0,0,0,0-0.1-0.1C28.2,4,28,4,27.8,4L27.8,4z M27.4,6.3L32,28.4
	c0.1,0.3,0.3,0.5,0.6,0.6l22.8,3.9l-18,18.8l-0.1-1.3h-0.6l0.1,1l-27-25.9l8.2,0.3l-0.1-0.9l-8-0.3L27.4,6.3L27.4,6.3z M28.9,6.6
	l25.8,24.7l-21.5-3.7L28.9,6.6z M19.3,24.9l0.1,0.9l1.4,0.1v-1H19.3z M22.2,25v1l3,0.1c0.2,0,0.4-0.1,0.5-0.3
	c0.1-0.2,0.1-0.4-0.1-0.6c0,0,0,0-0.1,0l0,0l0,0c-0.1,0-0.2-0.1-0.3-0.1L22.2,25L22.2,25z M36.2,41.1c-0.1,0-0.2,0.1-0.2,0.1
	c0,0.1-0.1,0.2,0,0.2l0.5,6h0.7l-0.5-6.1c0-0.1,0-0.2-0.1-0.3C36.4,41.1,36.3,41,36.2,41.1L36.2,41.1z M36.5,48.5l0.1,1h0.7l-0.1-1
	H36.5z"/>
</svg>
