<?xml version="1.0" encoding="utf-8"?>
<!-- Generator: Adobe Illustrator 23.0.1, SVG Export Plug-In . SVG Version: 6.00 Build 0)  -->
<svg version="1.1" id="Ebene_1" xmlns="http://www.w3.org/2000/svg" xmlns:xlink="http://www.w3.org/1999/xlink" x="0px" y="0px"
	 width="65.2px" height="65.2px" viewBox="0 0 65.2 65.2" enable-background="new 0 0 65.2 65.2" xml:space="preserve">
<polygon fill-rule="evenodd" clip-rule="evenodd" fill="#FFFFFF" points="57.24,31.7 28.62,4.37 33.34,27.62 "/>
<path fill-rule="evenodd" clip-rule="evenodd" fill="#FFFFFF" d="M46.9,52.62l-8.4,0.1l18.65-19.54c0,0-0.28-0.04-0.32-0.05
	l-24.24-4.12c-0.31-0.05-0.55-0.29-0.61-0.59L27.2,4.87c-0.04-0.19-0.06-0.37-0.06-0.37L7.8,24.72c-0.3,0.3-0.3,0.7,0,1l28.2,27
	l-8.5,0.1c-0.2,0-0.3,0.1-0.4,0.2c-0.2,0.2-0.2,0.4-0.1,0.6c0.1,0.2,0.3,0.3,0.5,0.3l19.4-0.1c0.2,0,0.3-0.1,0.4-0.2
	c0.1-0.1,0.2-0.3,0.2-0.4c0-0.2-0.1-0.3-0.2-0.4C47.2,52.72,47,52.62,46.9,52.62z"/>
</svg>
