<?xml version="1.0" encoding="utf-8"?>
<!-- Generator: Adobe Illustrator 23.0.1, SVG Export Plug-In . SVG Version: 6.00 Build 0)  -->
<svg version="1.1" id="Ebene_1" xmlns="http://www.w3.org/2000/svg" xmlns:xlink="http://www.w3.org/1999/xlink" x="0px" y="0px"
	 width="65.2px" height="65.2px" viewBox="0 0 65.2 65.2" enable-background="new 0 0 65.2 65.2" xml:space="preserve">
<path id="linkedin" fill-rule="evenodd" clip-rule="evenodd" fill="#FFFFFF" d="M14.9,5.8c-3.5,0-6.3,2.8-6.3,6.3s2.8,6.3,6.3,6.3
	s6.3-2.8,6.3-6.3S18.3,5.8,14.9,5.8z M14.9,7c2.8,0,5.1,2.3,5.1,5.1s-2.3,5.1-5.1,5.1s-5.1-2.3-5.1-5.1S12,7,14.9,7z M44.6,20.7
	c-4.2,0-6.7,2.1-8.6,4.2v-2.5c0-0.3-0.3-0.6-0.6-0.6h-9.1c-0.3,0-0.6,0.3-0.6,0.6v30.9c0,0.3,0.3,0.6,0.6,0.6H36
	c0.3,0,0.6-0.3,0.6-0.6V36.1c0-1.6,0.5-3,1.2-4.1c0.7-1,1.7-1.6,2.8-1.6h1.1c1,0,2,0.6,2.8,1.6c0.8,1,1.2,2.5,1.2,4.1v17.1
	c0,0.3,0.3,0.6,0.6,0.6H56c0.3,0,0.6-0.3,0.6-0.6v-20c0-3.7-0.7-6.9-2.6-9.1S49,20.7,44.6,20.7L44.6,20.7z M10.2,21.8
	c-0.3,0-0.5,0.3-0.5,0.6v30.9c0,0.3,0.3,0.6,0.6,0.6H20c0.3,0,0.6-0.3,0.6-0.6V22.4c0-0.3-0.3-0.6-0.6-0.6H10.2L10.2,21.8z
	 M44.6,21.8c4.2,0,6.9,1.1,8.5,3.1s2.3,4.8,2.3,8.4v19.4h-8.6V36.1c0-1.8-0.5-3.5-1.4-4.7c-0.9-1.3-2.2-2.1-3.7-2.1h-1.1
	c-1.5,0-2.8,0.8-3.7,2.1c-0.9,1.3-1.4,3-1.4,4.7v7.4h-1.2c-0.3,0-0.5,0.3-0.5,0.6s0.3,0.5,0.6,0.5h1.1V48h-1.2
	c-0.3,0-0.5,0.3-0.5,0.6s0.3,0.5,0.6,0.5h1.1v3.4h-8.6V23h8v3.4c0,0.5,0.7,0.7,1,0.4C37.8,24.3,40.1,21.8,44.6,21.8L44.6,21.8z
	 M10.9,23h8.6v20.6h-1.2c-0.3,0-0.5,0.3-0.5,0.6s0.3,0.5,0.6,0.5h1.1v3.4h-1.2c-0.3,0-0.5,0.3-0.5,0.6s0.3,0.5,0.6,0.5h1.1v3.4h-8.6
	V23z"/>
</svg>
