<?xml version="1.0" encoding="utf-8"?>
<!-- Generator: Adobe Illustrator 23.0.1, SVG Export Plug-In . SVG Version: 6.00 Build 0)  -->
<svg version="1.1" id="Ebene_1" xmlns="http://www.w3.org/2000/svg" xmlns:xlink="http://www.w3.org/1999/xlink" x="0px" y="0px"
	 width="65.2px" height="65.2px" viewBox="0 0 65.2 65.2" enable-background="new 0 0 65.2 65.2" xml:space="preserve">
<path id="linkedin" fill-rule="evenodd" clip-rule="evenodd" fill="#FFFFFF" d="M14.9,5.8c-3.5,0-6.3,2.8-6.3,6.3s2.8,6.3,6.3,6.3
	s6.3-2.8,6.3-6.3S18.3,5.8,14.9,5.8z M44.6,20.7c-4.2,0-6.7,2.1-8.6,4.2v-2.5c0-0.3-0.3-0.6-0.6-0.6h-9.1c-0.3,0-0.6,0.3-0.6,0.6
	v30.9c0,0.3,0.3,0.6,0.6,0.6H36c0.3,0,0.6-0.3,0.6-0.6V36.1c0-1.6,0.5-3,1.2-4.1c0.7-1,1.7-1.6,2.8-1.6h1.1c1,0,2,0.6,2.8,1.6
	c0.8,1,1.2,2.5,1.2,4.1v17.1c0,0.3,0.3,0.6,0.6,0.6H56c0.3,0,0.6-0.3,0.6-0.6v-20c0-3.7-0.7-6.9-2.6-9.1S49,20.7,44.6,20.7
	L44.6,20.7z M10.2,21.8c-0.3,0-0.5,0.3-0.5,0.6v30.9c0,0.3,0.3,0.6,0.6,0.6H20c0.3,0,0.6-0.3,0.6-0.6V22.4c0-0.3-0.3-0.6-0.6-0.6
	H10.2L10.2,21.8z"/>
</svg>
