<?xml version="1.0" encoding="utf-8"?>
<!-- Generator: Adobe Illustrator 23.0.1, SVG Export Plug-In . SVG Version: 6.00 Build 0)  -->
<svg version="1.1" id="Ebene_1" xmlns="http://www.w3.org/2000/svg" xmlns:xlink="http://www.w3.org/1999/xlink" x="0px" y="0px"
	 width="65.2px" height="65.2px" viewBox="0 0 65.2 65.2" enable-background="new 0 0 65.2 65.2" xml:space="preserve">
<path fill="#FFFFFF" d="M26.3,54.5c-0.2,0-0.4,0-0.6,0c-5.5,0-10.9-1.5-15.5-4.5l-6.9-4.4C3,45.4,2.9,45,3,44.7
	s0.5-0.5,0.8-0.5l8.2,0.9c0.6,0.1,1.3,0.1,1.9,0.1c1.6,0,3.2-0.2,4.7-0.7c-2.1-1.4-3.7-3.6-4.5-6l-0.9-2.7c-1.6-2-2.5-4.5-2.5-7.1
	v-0.1l0.1-3.1c0-0.2,0.1-0.5,0.3-0.6c-0.7-2.9-0.2-5.9,1.3-8.5l1.4-2.3c0.1-0.2,0.3-0.3,0.6-0.4c0.2,0,0.5,0.1,0.6,0.3l1.7,2.1
	c3.6,4.3,8.5,7.1,14,8.1c0.3-4.2,3-7.9,6.9-9.7c4.1-1.8,8.9-1.2,12.4,1.6c1.3-0.4,2.6-0.9,3.7-1.6L58,12c0.3-0.2,0.6-0.1,0.8,0.1
	c0.2,0.2,0.3,0.5,0.2,0.8l-1.3,3.9l3.4-1.5c0.3-0.1,0.7,0,0.9,0.2c0.2,0.3,0.2,0.6,0,0.9l-3.6,5.3c-1.1,1.7-2.5,3.2-4.1,4.5
	c-0.1,7-2.7,13.7-7.4,18.9C41.8,51.1,34.2,54.5,26.3,54.5z"/>
</svg>
